# xmcd
#
# Track frame offsets:
#	150
#	16588
#	47137
#	77601
#	93411
#	121005
#	136298
#	170017
#	201416
#	215065
#	229790
#	253137
#	269166
#	285188
#	300819
#	317030
#	331550
#
# Disc length: 4801 seconds
#
# Revision: 0
# Processed by: cddbd v1.4PL0 Copyright (c) Steve Scherf et al.
# Submitted via: EasyCDDAExtractor 5.0.5.1
#
DISCID=e412bf11
DTITLE=Various Artist - TOCO INTERNATIONAL PROMO MUSIC SERVICE MAY 2003
DYEAR=2003
DGENRE=Acid Jazz
TTITLE0=DRUNKENMUNKY  - THE GRABBING HANDS(SMALL MIX)
TTITLE1=DRUNKENMUNKY  - THE GRABBING HANDS(LARGE MIX)
TTITLE2=DRUNKENMUNKY  - THE GRABBING HANDS(ITTYB MIX)
TTITLE3=J.LEE - TELL ME WHY CAN'T FALL IN LOVE (RADIO EDIT)
TTITLE4=J.LEE - TELL ME WHY CAN'T FALL IN LOVE (CLUB MIX)
TTITLE5=DJ PRINCE &JUSTIN K. - GO (EDIT)
TTITLE6=DJ PRINCE &JUSTIN K. - GO (ORIGINAL)
TTITLE7=DJ PRINCE &JUSTIN K. - GO (DJ K-MIXX MAIN HALL MIX)
TTITLE8=TERRY WILLIAMS  - SORRY BABY (RADIO EDIT)
TTITLE9=TERRY WILLIAMS  - SORRY BABY (OSCAR RADIO EDIT)
TTITLE10=TERRY WILLIAMS  - SORRY BABY (CLUB MIX)
TTITLE11=TINA BRIDE  - IT FEELS SO GOOD(RADIO EDIT)
TTITLE12=TINA BRIDE  - QUE POUR NOUS DEUX(RADIO EDIT)
TTITLE13=BE-COSS  - IT WAS SOOO(EXTRA SINGLE MIX)
TTITLE14=BE-COSS  - IT WAS SOOO(TRANCE RADIO EDIT)
TTITLE15=SONNY O'BRIEN - FRIDAY NIGHT FOREVER(RADIO EDIT)
TTITLE16=SONNY O'BRIEN - FRIDAY NIGHT FOREVER(CLUB MIX)
EXTD=
EXTT0=
EXTT1=
EXTT2=
EXTT3=
EXTT4=
EXTT5=
EXTT6=
EXTT7=
EXTT8=
EXTT9=
EXTT10=
EXTT11=
EXTT12=
EXTT13=
EXTT14=
EXTT15=
EXTT16=
PLAYORDER=
